<svg xmlns="http://www.w3.org/2000/svg" viewBox="0 0 800 560">
  <defs>
    <linearGradient id="g" x1="0" y1="0" x2="1" y2="1">
      <stop offset="0" stop-color="#7c3aed"/>
      <stop offset="1" stop-color="#334155"/>
    </linearGradient>
  </defs>
  <rect width="800" height="560" fill="url(#g)"/>
  <g transform="translate(250 110)">
    <circle cx="150" cy="170" r="150" fill="none" stroke="#ffffff" stroke-width="26" opacity="0.22"/>
    <path d="M150 20 A150 150 0 0 1 286 250" fill="none" stroke="#fde047" stroke-width="26" stroke-linecap="round"/>
    <circle cx="150" cy="170" r="26" fill="#ffffff"/>
    <line x1="150" y1="170" x2="240" y2="120" stroke="#ffffff" stroke-width="14" stroke-linecap="round"/>
  </g>
  <g transform="translate(560 120)">
    <path d="M55 0 L68 34 L104 34 L75 56 L85 92 L55 69 L25 92 L35 56 L6 34 L42 34z" fill="#fde047"/>
    <path d="M55 120 L63 140 L85 140 L67 152 L74 174 L55 161 L36 174 L43 152 L25 140 L47 140z" fill="#ffffff" opacity="0.75"/>
  </g>
  <g fill="#ffffff">
    <circle cx="120" cy="80" r="5"/><circle cx="150" cy="110" r="3"/><circle cx="660" cy="440" r="5"/>
    <circle cx="700" cy="400" r="3"/>
  </g>
</svg>
